<mxfile host="app.diagrams.net" modified="2024-06-26T07:13:32.930Z" agent="Mozilla/5.0 (X11; Linux x86_64) AppleWebKit/537.36 (KHTML, like Gecko) Chrome/125.0.0.0 Safari/537.36" etag="0GkWTPfo2P1xoet-MS_q" version="24.6.3" type="device">
  <diagram name="페이지-1" id="oVLFn82vCZRcj5821z4E">
    <mxGraphModel dx="2954" dy="1066" grid="1" gridSize="10" guides="1" tooltips="1" connect="1" arrows="1" fold="1" page="1" pageScale="1" pageWidth="827" pageHeight="1169" math="0" shadow="0">
      <root>
        <mxCell id="0" />
        <mxCell id="1" parent="0" />
        <mxCell id="Vmd4Rv8mu31Ne3CAr1AM-1" value="" style="endArrow=none;html=1;rounded=0;" edge="1" parent="1">
          <mxGeometry width="50" height="50" relative="1" as="geometry">
            <mxPoint x="80" y="200" as="sourcePoint" />
            <mxPoint x="200" y="80" as="targetPoint" />
          </mxGeometry>
        </mxCell>
        <mxCell id="Vmd4Rv8mu31Ne3CAr1AM-2" value="" style="endArrow=none;html=1;rounded=0;" edge="1" parent="1">
          <mxGeometry width="50" height="50" relative="1" as="geometry">
            <mxPoint x="280" y="200" as="sourcePoint" />
            <mxPoint x="400" y="80" as="targetPoint" />
          </mxGeometry>
        </mxCell>
        <mxCell id="Vmd4Rv8mu31Ne3CAr1AM-3" value="" style="endArrow=none;html=1;rounded=0;" edge="1" parent="1">
          <mxGeometry width="50" height="50" relative="1" as="geometry">
            <mxPoint x="80" y="200" as="sourcePoint" />
            <mxPoint x="280" y="200" as="targetPoint" />
          </mxGeometry>
        </mxCell>
        <mxCell id="Vmd4Rv8mu31Ne3CAr1AM-4" value="" style="endArrow=none;html=1;rounded=0;" edge="1" parent="1">
          <mxGeometry width="50" height="50" relative="1" as="geometry">
            <mxPoint x="200" y="80" as="sourcePoint" />
            <mxPoint x="400" y="80" as="targetPoint" />
          </mxGeometry>
        </mxCell>
        <mxCell id="Vmd4Rv8mu31Ne3CAr1AM-5" value="" style="endArrow=none;html=1;rounded=0;" edge="1" parent="1">
          <mxGeometry width="50" height="50" relative="1" as="geometry">
            <mxPoint x="400" y="80" as="sourcePoint" />
            <mxPoint x="400" y="320" as="targetPoint" />
          </mxGeometry>
        </mxCell>
        <mxCell id="Vmd4Rv8mu31Ne3CAr1AM-6" value="" style="endArrow=none;html=1;rounded=0;" edge="1" parent="1">
          <mxGeometry width="50" height="50" relative="1" as="geometry">
            <mxPoint x="280" y="200" as="sourcePoint" />
            <mxPoint x="280" y="440" as="targetPoint" />
          </mxGeometry>
        </mxCell>
        <mxCell id="Vmd4Rv8mu31Ne3CAr1AM-7" value="" style="endArrow=classic;html=1;rounded=0;endFill=1;" edge="1" parent="1">
          <mxGeometry width="50" height="50" relative="1" as="geometry">
            <mxPoint x="80" y="200" as="sourcePoint" />
            <mxPoint x="80" y="440" as="targetPoint" />
          </mxGeometry>
        </mxCell>
        <mxCell id="Vmd4Rv8mu31Ne3CAr1AM-8" value="" style="endArrow=none;html=1;rounded=0;" edge="1" parent="1">
          <mxGeometry width="50" height="50" relative="1" as="geometry">
            <mxPoint x="80" y="440" as="sourcePoint" />
            <mxPoint x="280" y="440" as="targetPoint" />
          </mxGeometry>
        </mxCell>
        <mxCell id="Vmd4Rv8mu31Ne3CAr1AM-10" value="" style="endArrow=none;html=1;rounded=0;" edge="1" parent="1">
          <mxGeometry width="50" height="50" relative="1" as="geometry">
            <mxPoint x="280" y="440" as="sourcePoint" />
            <mxPoint x="400" y="320" as="targetPoint" />
          </mxGeometry>
        </mxCell>
        <mxCell id="Vmd4Rv8mu31Ne3CAr1AM-11" value="" style="endArrow=none;html=1;rounded=0;dashed=1;" edge="1" parent="1">
          <mxGeometry width="50" height="50" relative="1" as="geometry">
            <mxPoint x="200" y="80" as="sourcePoint" />
            <mxPoint x="200" y="320" as="targetPoint" />
          </mxGeometry>
        </mxCell>
        <mxCell id="Vmd4Rv8mu31Ne3CAr1AM-12" value="" style="endArrow=none;html=1;rounded=0;dashed=1;" edge="1" parent="1">
          <mxGeometry width="50" height="50" relative="1" as="geometry">
            <mxPoint x="80" y="440" as="sourcePoint" />
            <mxPoint x="200" y="320" as="targetPoint" />
          </mxGeometry>
        </mxCell>
        <mxCell id="Vmd4Rv8mu31Ne3CAr1AM-13" value="" style="endArrow=none;html=1;rounded=0;dashed=1;" edge="1" parent="1">
          <mxGeometry width="50" height="50" relative="1" as="geometry">
            <mxPoint x="200" y="320" as="sourcePoint" />
            <mxPoint x="400" y="320" as="targetPoint" />
          </mxGeometry>
        </mxCell>
        <mxCell id="Vmd4Rv8mu31Ne3CAr1AM-14" value="a" style="text;html=1;align=center;verticalAlign=middle;whiteSpace=wrap;rounded=0;fontStyle=1" vertex="1" parent="1">
          <mxGeometry x="40" y="160" width="40" height="40" as="geometry" />
        </mxCell>
        <mxCell id="Vmd4Rv8mu31Ne3CAr1AM-15" value="b" style="text;html=1;align=center;verticalAlign=middle;whiteSpace=wrap;rounded=0;fontStyle=1" vertex="1" parent="1">
          <mxGeometry x="240" y="160" width="40" height="40" as="geometry" />
        </mxCell>
        <mxCell id="Vmd4Rv8mu31Ne3CAr1AM-16" value="c" style="text;html=1;align=center;verticalAlign=middle;whiteSpace=wrap;rounded=0;fontStyle=1" vertex="1" parent="1">
          <mxGeometry x="360" y="40" width="40" height="40" as="geometry" />
        </mxCell>
        <mxCell id="Vmd4Rv8mu31Ne3CAr1AM-17" value="d" style="text;html=1;align=center;verticalAlign=middle;whiteSpace=wrap;rounded=0;fontStyle=1" vertex="1" parent="1">
          <mxGeometry x="160" y="40" width="40" height="40" as="geometry" />
        </mxCell>
        <mxCell id="Vmd4Rv8mu31Ne3CAr1AM-18" value="e" style="text;html=1;align=center;verticalAlign=middle;whiteSpace=wrap;rounded=0;fontStyle=1" vertex="1" parent="1">
          <mxGeometry x="160" y="280" width="40" height="40" as="geometry" />
        </mxCell>
        <mxCell id="Vmd4Rv8mu31Ne3CAr1AM-19" value="f" style="text;html=1;align=center;verticalAlign=middle;whiteSpace=wrap;rounded=0;fontStyle=1" vertex="1" parent="1">
          <mxGeometry x="40" y="400" width="40" height="40" as="geometry" />
        </mxCell>
        <mxCell id="Vmd4Rv8mu31Ne3CAr1AM-20" value="g" style="text;html=1;align=center;verticalAlign=middle;whiteSpace=wrap;rounded=0;fontStyle=1" vertex="1" parent="1">
          <mxGeometry x="240" y="400" width="40" height="40" as="geometry" />
        </mxCell>
        <mxCell id="Vmd4Rv8mu31Ne3CAr1AM-21" value="h" style="text;html=1;align=center;verticalAlign=middle;whiteSpace=wrap;rounded=0;fontStyle=1" vertex="1" parent="1">
          <mxGeometry x="360" y="280" width="40" height="40" as="geometry" />
        </mxCell>
        <mxCell id="Vmd4Rv8mu31Ne3CAr1AM-23" value="" style="endArrow=classic;html=1;rounded=0;entryX=1;entryY=0;entryDx=0;entryDy=0;" edge="1" parent="1" target="Vmd4Rv8mu31Ne3CAr1AM-20">
          <mxGeometry width="50" height="50" relative="1" as="geometry">
            <mxPoint x="80" y="200" as="sourcePoint" />
            <mxPoint x="180" y="440" as="targetPoint" />
          </mxGeometry>
        </mxCell>
        <mxCell id="Vmd4Rv8mu31Ne3CAr1AM-24" value="i" style="text;html=1;align=center;verticalAlign=middle;whiteSpace=wrap;rounded=0;fontStyle=1" vertex="1" parent="1">
          <mxGeometry x="270" y="380" width="40" height="40" as="geometry" />
        </mxCell>
        <mxCell id="Vmd4Rv8mu31Ne3CAr1AM-25" value="" style="endArrow=classic;html=1;rounded=0;exitX=1;exitY=1;exitDx=0;exitDy=0;" edge="1" parent="1" source="Vmd4Rv8mu31Ne3CAr1AM-14">
          <mxGeometry width="50" height="50" relative="1" as="geometry">
            <mxPoint x="560" y="260" as="sourcePoint" />
            <mxPoint x="340" y="380" as="targetPoint" />
          </mxGeometry>
        </mxCell>
        <mxCell id="Vmd4Rv8mu31Ne3CAr1AM-26" value="j" style="text;html=1;align=center;verticalAlign=middle;whiteSpace=wrap;rounded=0;fontStyle=1" vertex="1" parent="1">
          <mxGeometry x="330" y="360" width="40" height="40" as="geometry" />
        </mxCell>
        <mxCell id="Vmd4Rv8mu31Ne3CAr1AM-27" value="" style="endArrow=none;html=1;rounded=0;" edge="1" parent="1">
          <mxGeometry width="50" height="50" relative="1" as="geometry">
            <mxPoint x="520" y="200" as="sourcePoint" />
            <mxPoint x="640" y="80" as="targetPoint" />
          </mxGeometry>
        </mxCell>
        <mxCell id="Vmd4Rv8mu31Ne3CAr1AM-28" value="" style="endArrow=none;html=1;rounded=0;" edge="1" parent="1">
          <mxGeometry width="50" height="50" relative="1" as="geometry">
            <mxPoint x="720" y="200" as="sourcePoint" />
            <mxPoint x="840" y="80" as="targetPoint" />
          </mxGeometry>
        </mxCell>
        <mxCell id="Vmd4Rv8mu31Ne3CAr1AM-29" value="" style="endArrow=none;html=1;rounded=0;" edge="1" parent="1">
          <mxGeometry width="50" height="50" relative="1" as="geometry">
            <mxPoint x="520" y="200" as="sourcePoint" />
            <mxPoint x="720" y="200" as="targetPoint" />
          </mxGeometry>
        </mxCell>
        <mxCell id="Vmd4Rv8mu31Ne3CAr1AM-30" value="" style="endArrow=none;html=1;rounded=0;" edge="1" parent="1">
          <mxGeometry width="50" height="50" relative="1" as="geometry">
            <mxPoint x="640" y="80" as="sourcePoint" />
            <mxPoint x="840" y="80" as="targetPoint" />
          </mxGeometry>
        </mxCell>
        <mxCell id="Vmd4Rv8mu31Ne3CAr1AM-31" value="" style="endArrow=none;html=1;rounded=0;" edge="1" parent="1">
          <mxGeometry width="50" height="50" relative="1" as="geometry">
            <mxPoint x="840" y="80" as="sourcePoint" />
            <mxPoint x="840" y="320" as="targetPoint" />
          </mxGeometry>
        </mxCell>
        <mxCell id="Vmd4Rv8mu31Ne3CAr1AM-32" value="" style="endArrow=none;html=1;rounded=0;" edge="1" parent="1">
          <mxGeometry width="50" height="50" relative="1" as="geometry">
            <mxPoint x="720" y="200" as="sourcePoint" />
            <mxPoint x="720" y="440" as="targetPoint" />
          </mxGeometry>
        </mxCell>
        <mxCell id="Vmd4Rv8mu31Ne3CAr1AM-33" value="" style="endArrow=classic;html=1;rounded=0;endFill=1;strokeColor=#FF3333;" edge="1" parent="1">
          <mxGeometry width="50" height="50" relative="1" as="geometry">
            <mxPoint x="520" y="200" as="sourcePoint" />
            <mxPoint x="520" y="440" as="targetPoint" />
          </mxGeometry>
        </mxCell>
        <mxCell id="Vmd4Rv8mu31Ne3CAr1AM-34" value="" style="endArrow=none;html=1;rounded=0;" edge="1" parent="1">
          <mxGeometry width="50" height="50" relative="1" as="geometry">
            <mxPoint x="520" y="440" as="sourcePoint" />
            <mxPoint x="720" y="440" as="targetPoint" />
          </mxGeometry>
        </mxCell>
        <mxCell id="Vmd4Rv8mu31Ne3CAr1AM-35" value="" style="endArrow=none;html=1;rounded=0;" edge="1" parent="1">
          <mxGeometry width="50" height="50" relative="1" as="geometry">
            <mxPoint x="720" y="440" as="sourcePoint" />
            <mxPoint x="840" y="320" as="targetPoint" />
          </mxGeometry>
        </mxCell>
        <mxCell id="Vmd4Rv8mu31Ne3CAr1AM-36" value="" style="endArrow=none;html=1;rounded=0;dashed=1;" edge="1" parent="1">
          <mxGeometry width="50" height="50" relative="1" as="geometry">
            <mxPoint x="640" y="80" as="sourcePoint" />
            <mxPoint x="640" y="320" as="targetPoint" />
          </mxGeometry>
        </mxCell>
        <mxCell id="Vmd4Rv8mu31Ne3CAr1AM-37" value="" style="endArrow=none;html=1;rounded=0;dashed=1;" edge="1" parent="1">
          <mxGeometry width="50" height="50" relative="1" as="geometry">
            <mxPoint x="520" y="440" as="sourcePoint" />
            <mxPoint x="640" y="320" as="targetPoint" />
          </mxGeometry>
        </mxCell>
        <mxCell id="Vmd4Rv8mu31Ne3CAr1AM-38" value="" style="endArrow=none;html=1;rounded=0;dashed=1;" edge="1" parent="1">
          <mxGeometry width="50" height="50" relative="1" as="geometry">
            <mxPoint x="640" y="320" as="sourcePoint" />
            <mxPoint x="840" y="320" as="targetPoint" />
          </mxGeometry>
        </mxCell>
        <mxCell id="Vmd4Rv8mu31Ne3CAr1AM-39" value="a" style="text;html=1;align=center;verticalAlign=middle;whiteSpace=wrap;rounded=0;fontStyle=1" vertex="1" parent="1">
          <mxGeometry x="480" y="160" width="40" height="40" as="geometry" />
        </mxCell>
        <mxCell id="Vmd4Rv8mu31Ne3CAr1AM-40" value="b" style="text;html=1;align=center;verticalAlign=middle;whiteSpace=wrap;rounded=0;fontStyle=1" vertex="1" parent="1">
          <mxGeometry x="680" y="160" width="40" height="40" as="geometry" />
        </mxCell>
        <mxCell id="Vmd4Rv8mu31Ne3CAr1AM-41" value="c" style="text;html=1;align=center;verticalAlign=middle;whiteSpace=wrap;rounded=0;fontStyle=1" vertex="1" parent="1">
          <mxGeometry x="800" y="40" width="40" height="40" as="geometry" />
        </mxCell>
        <mxCell id="Vmd4Rv8mu31Ne3CAr1AM-42" value="d" style="text;html=1;align=center;verticalAlign=middle;whiteSpace=wrap;rounded=0;fontStyle=1" vertex="1" parent="1">
          <mxGeometry x="600" y="40" width="40" height="40" as="geometry" />
        </mxCell>
        <mxCell id="Vmd4Rv8mu31Ne3CAr1AM-43" value="e" style="text;html=1;align=center;verticalAlign=middle;whiteSpace=wrap;rounded=0;fontStyle=1" vertex="1" parent="1">
          <mxGeometry x="600" y="280" width="40" height="40" as="geometry" />
        </mxCell>
        <mxCell id="Vmd4Rv8mu31Ne3CAr1AM-44" value="f" style="text;html=1;align=center;verticalAlign=middle;whiteSpace=wrap;rounded=0;fontStyle=1" vertex="1" parent="1">
          <mxGeometry x="480" y="400" width="40" height="40" as="geometry" />
        </mxCell>
        <mxCell id="Vmd4Rv8mu31Ne3CAr1AM-45" value="g" style="text;html=1;align=center;verticalAlign=middle;whiteSpace=wrap;rounded=0;fontStyle=1" vertex="1" parent="1">
          <mxGeometry x="680" y="400" width="40" height="40" as="geometry" />
        </mxCell>
        <mxCell id="Vmd4Rv8mu31Ne3CAr1AM-46" value="h" style="text;html=1;align=center;verticalAlign=middle;whiteSpace=wrap;rounded=0;fontStyle=1" vertex="1" parent="1">
          <mxGeometry x="800" y="280" width="40" height="40" as="geometry" />
        </mxCell>
        <mxCell id="Vmd4Rv8mu31Ne3CAr1AM-47" value="" style="endArrow=classic;html=1;rounded=0;entryX=1;entryY=0;entryDx=0;entryDy=0;" edge="1" parent="1" target="Vmd4Rv8mu31Ne3CAr1AM-45">
          <mxGeometry width="50" height="50" relative="1" as="geometry">
            <mxPoint x="520" y="200" as="sourcePoint" />
            <mxPoint x="620" y="440" as="targetPoint" />
          </mxGeometry>
        </mxCell>
        <mxCell id="Vmd4Rv8mu31Ne3CAr1AM-48" value="i" style="text;html=1;align=center;verticalAlign=middle;whiteSpace=wrap;rounded=0;fontStyle=1" vertex="1" parent="1">
          <mxGeometry x="710" y="380" width="40" height="40" as="geometry" />
        </mxCell>
        <mxCell id="Vmd4Rv8mu31Ne3CAr1AM-49" value="" style="endArrow=classic;html=1;rounded=0;exitX=1;exitY=1;exitDx=0;exitDy=0;" edge="1" source="Vmd4Rv8mu31Ne3CAr1AM-39" parent="1">
          <mxGeometry width="50" height="50" relative="1" as="geometry">
            <mxPoint x="1000" y="260" as="sourcePoint" />
            <mxPoint x="780" y="380" as="targetPoint" />
          </mxGeometry>
        </mxCell>
        <mxCell id="Vmd4Rv8mu31Ne3CAr1AM-50" value="j" style="text;html=1;align=center;verticalAlign=middle;whiteSpace=wrap;rounded=0;fontStyle=1" vertex="1" parent="1">
          <mxGeometry x="770" y="360" width="40" height="40" as="geometry" />
        </mxCell>
        <mxCell id="Vmd4Rv8mu31Ne3CAr1AM-51" value="q&lt;sub&gt;1&lt;/sub&gt;" style="text;html=1;align=center;verticalAlign=middle;whiteSpace=wrap;rounded=0;fontStyle=1;fontColor=#FF3333;" vertex="1" parent="1">
          <mxGeometry x="480" y="300" width="40" height="40" as="geometry" />
        </mxCell>
        <mxCell id="Vmd4Rv8mu31Ne3CAr1AM-52" value="" style="endArrow=none;html=1;rounded=0;" edge="1" parent="1">
          <mxGeometry width="50" height="50" relative="1" as="geometry">
            <mxPoint x="80.00000000000006" y="720" as="sourcePoint" />
            <mxPoint x="200.00000000000006" y="600" as="targetPoint" />
          </mxGeometry>
        </mxCell>
        <mxCell id="Vmd4Rv8mu31Ne3CAr1AM-53" value="" style="endArrow=none;html=1;rounded=0;" edge="1" parent="1">
          <mxGeometry width="50" height="50" relative="1" as="geometry">
            <mxPoint x="280.00000000000006" y="720" as="sourcePoint" />
            <mxPoint x="400" y="600" as="targetPoint" />
          </mxGeometry>
        </mxCell>
        <mxCell id="Vmd4Rv8mu31Ne3CAr1AM-54" value="" style="endArrow=none;html=1;rounded=0;" edge="1" parent="1">
          <mxGeometry width="50" height="50" relative="1" as="geometry">
            <mxPoint x="80.00000000000006" y="720" as="sourcePoint" />
            <mxPoint x="280.00000000000006" y="720" as="targetPoint" />
          </mxGeometry>
        </mxCell>
        <mxCell id="Vmd4Rv8mu31Ne3CAr1AM-55" value="" style="endArrow=none;html=1;rounded=0;" edge="1" parent="1">
          <mxGeometry width="50" height="50" relative="1" as="geometry">
            <mxPoint x="200.00000000000006" y="600" as="sourcePoint" />
            <mxPoint x="400" y="600" as="targetPoint" />
          </mxGeometry>
        </mxCell>
        <mxCell id="Vmd4Rv8mu31Ne3CAr1AM-56" value="" style="endArrow=none;html=1;rounded=0;" edge="1" parent="1">
          <mxGeometry width="50" height="50" relative="1" as="geometry">
            <mxPoint x="400" y="600" as="sourcePoint" />
            <mxPoint x="400" y="840" as="targetPoint" />
          </mxGeometry>
        </mxCell>
        <mxCell id="Vmd4Rv8mu31Ne3CAr1AM-57" value="" style="endArrow=none;html=1;rounded=0;" edge="1" parent="1">
          <mxGeometry width="50" height="50" relative="1" as="geometry">
            <mxPoint x="280.00000000000006" y="720" as="sourcePoint" />
            <mxPoint x="280.00000000000006" y="960.0000000000001" as="targetPoint" />
          </mxGeometry>
        </mxCell>
        <mxCell id="Vmd4Rv8mu31Ne3CAr1AM-58" value="" style="endArrow=classic;html=1;rounded=0;endFill=1;strokeColor=#000000;fontColor=#000000;" edge="1" parent="1">
          <mxGeometry width="50" height="50" relative="1" as="geometry">
            <mxPoint x="80.00000000000006" y="720" as="sourcePoint" />
            <mxPoint x="80.00000000000006" y="960.0000000000001" as="targetPoint" />
          </mxGeometry>
        </mxCell>
        <mxCell id="Vmd4Rv8mu31Ne3CAr1AM-59" value="" style="endArrow=none;html=1;rounded=0;" edge="1" parent="1">
          <mxGeometry width="50" height="50" relative="1" as="geometry">
            <mxPoint x="80.00000000000006" y="960.0000000000001" as="sourcePoint" />
            <mxPoint x="280.00000000000006" y="960.0000000000001" as="targetPoint" />
          </mxGeometry>
        </mxCell>
        <mxCell id="Vmd4Rv8mu31Ne3CAr1AM-60" value="" style="endArrow=none;html=1;rounded=0;" edge="1" parent="1">
          <mxGeometry width="50" height="50" relative="1" as="geometry">
            <mxPoint x="280.00000000000006" y="960.0000000000001" as="sourcePoint" />
            <mxPoint x="400" y="840" as="targetPoint" />
          </mxGeometry>
        </mxCell>
        <mxCell id="Vmd4Rv8mu31Ne3CAr1AM-61" value="" style="endArrow=none;html=1;rounded=0;dashed=1;" edge="1" parent="1">
          <mxGeometry width="50" height="50" relative="1" as="geometry">
            <mxPoint x="200.00000000000006" y="600" as="sourcePoint" />
            <mxPoint x="200.00000000000006" y="840" as="targetPoint" />
          </mxGeometry>
        </mxCell>
        <mxCell id="Vmd4Rv8mu31Ne3CAr1AM-62" value="" style="endArrow=none;html=1;rounded=0;dashed=1;" edge="1" parent="1">
          <mxGeometry width="50" height="50" relative="1" as="geometry">
            <mxPoint x="80.00000000000006" y="960.0000000000001" as="sourcePoint" />
            <mxPoint x="200.00000000000006" y="840" as="targetPoint" />
          </mxGeometry>
        </mxCell>
        <mxCell id="Vmd4Rv8mu31Ne3CAr1AM-63" value="" style="endArrow=none;html=1;rounded=0;dashed=1;" edge="1" parent="1">
          <mxGeometry width="50" height="50" relative="1" as="geometry">
            <mxPoint x="200.00000000000006" y="840" as="sourcePoint" />
            <mxPoint x="400" y="840" as="targetPoint" />
          </mxGeometry>
        </mxCell>
        <mxCell id="Vmd4Rv8mu31Ne3CAr1AM-64" value="a" style="text;html=1;align=center;verticalAlign=middle;whiteSpace=wrap;rounded=0;fontStyle=1" vertex="1" parent="1">
          <mxGeometry x="40.00000000000006" y="680" width="40" height="40" as="geometry" />
        </mxCell>
        <mxCell id="Vmd4Rv8mu31Ne3CAr1AM-65" value="b" style="text;html=1;align=center;verticalAlign=middle;whiteSpace=wrap;rounded=0;fontStyle=1" vertex="1" parent="1">
          <mxGeometry x="240.00000000000006" y="680" width="40" height="40" as="geometry" />
        </mxCell>
        <mxCell id="Vmd4Rv8mu31Ne3CAr1AM-66" value="c" style="text;html=1;align=center;verticalAlign=middle;whiteSpace=wrap;rounded=0;fontStyle=1" vertex="1" parent="1">
          <mxGeometry x="360" y="560" width="40" height="40" as="geometry" />
        </mxCell>
        <mxCell id="Vmd4Rv8mu31Ne3CAr1AM-67" value="d" style="text;html=1;align=center;verticalAlign=middle;whiteSpace=wrap;rounded=0;fontStyle=1" vertex="1" parent="1">
          <mxGeometry x="160.00000000000006" y="560" width="40" height="40" as="geometry" />
        </mxCell>
        <mxCell id="Vmd4Rv8mu31Ne3CAr1AM-68" value="e" style="text;html=1;align=center;verticalAlign=middle;whiteSpace=wrap;rounded=0;fontStyle=1" vertex="1" parent="1">
          <mxGeometry x="160.00000000000006" y="800" width="40" height="40" as="geometry" />
        </mxCell>
        <mxCell id="Vmd4Rv8mu31Ne3CAr1AM-69" value="f" style="text;html=1;align=center;verticalAlign=middle;whiteSpace=wrap;rounded=0;fontStyle=1" vertex="1" parent="1">
          <mxGeometry x="40.00000000000006" y="920.0000000000001" width="40" height="40" as="geometry" />
        </mxCell>
        <mxCell id="Vmd4Rv8mu31Ne3CAr1AM-70" value="g" style="text;html=1;align=center;verticalAlign=middle;whiteSpace=wrap;rounded=0;fontStyle=1" vertex="1" parent="1">
          <mxGeometry x="240.00000000000006" y="920.0000000000001" width="40" height="40" as="geometry" />
        </mxCell>
        <mxCell id="Vmd4Rv8mu31Ne3CAr1AM-71" value="h" style="text;html=1;align=center;verticalAlign=middle;whiteSpace=wrap;rounded=0;fontStyle=1" vertex="1" parent="1">
          <mxGeometry x="360" y="800" width="40" height="40" as="geometry" />
        </mxCell>
        <mxCell id="Vmd4Rv8mu31Ne3CAr1AM-72" value="" style="endArrow=classic;html=1;rounded=0;entryX=1;entryY=0;entryDx=0;entryDy=0;" edge="1" parent="1" target="Vmd4Rv8mu31Ne3CAr1AM-70">
          <mxGeometry width="50" height="50" relative="1" as="geometry">
            <mxPoint x="80.00000000000006" y="720" as="sourcePoint" />
            <mxPoint x="180.00000000000006" y="960.0000000000001" as="targetPoint" />
          </mxGeometry>
        </mxCell>
        <mxCell id="Vmd4Rv8mu31Ne3CAr1AM-73" value="i" style="text;html=1;align=center;verticalAlign=middle;whiteSpace=wrap;rounded=0;fontStyle=1" vertex="1" parent="1">
          <mxGeometry x="270.00000000000006" y="900.0000000000001" width="40" height="40" as="geometry" />
        </mxCell>
        <mxCell id="Vmd4Rv8mu31Ne3CAr1AM-74" value="" style="endArrow=classic;html=1;rounded=0;exitX=1;exitY=1;exitDx=0;exitDy=0;" edge="1" source="Vmd4Rv8mu31Ne3CAr1AM-64" parent="1">
          <mxGeometry width="50" height="50" relative="1" as="geometry">
            <mxPoint x="560" y="780" as="sourcePoint" />
            <mxPoint x="340.00000000000006" y="900.0000000000001" as="targetPoint" />
          </mxGeometry>
        </mxCell>
        <mxCell id="Vmd4Rv8mu31Ne3CAr1AM-75" value="j" style="text;html=1;align=center;verticalAlign=middle;whiteSpace=wrap;rounded=0;fontStyle=1" vertex="1" parent="1">
          <mxGeometry x="280.00000000000006" y="870.0000000000001" width="40" height="40" as="geometry" />
        </mxCell>
        <mxCell id="Vmd4Rv8mu31Ne3CAr1AM-76" value="q&lt;sub&gt;1&lt;/sub&gt;" style="text;html=1;align=center;verticalAlign=middle;whiteSpace=wrap;rounded=0;fontStyle=1;fontColor=#000000;" vertex="1" parent="1">
          <mxGeometry x="40.00000000000006" y="820" width="40" height="40" as="geometry" />
        </mxCell>
        <mxCell id="Vmd4Rv8mu31Ne3CAr1AM-78" value="" style="endArrow=classic;html=1;rounded=0;endFill=1;strokeColor=#FF3333;" edge="1" parent="1">
          <mxGeometry width="50" height="50" relative="1" as="geometry">
            <mxPoint x="80.00000000000006" y="920.0000000000001" as="sourcePoint" />
            <mxPoint x="280.00000000000006" y="920.0000000000001" as="targetPoint" />
          </mxGeometry>
        </mxCell>
        <mxCell id="Vmd4Rv8mu31Ne3CAr1AM-80" value="" style="endArrow=classic;html=1;rounded=0;endFill=1;strokeColor=#FF3333;fontColor=#000000;" edge="1" parent="1">
          <mxGeometry width="50" height="50" relative="1" as="geometry">
            <mxPoint x="79.86000000000018" y="720" as="sourcePoint" />
            <mxPoint x="79.43000000000012" y="920.0000000000001" as="targetPoint" />
          </mxGeometry>
        </mxCell>
        <mxCell id="Vmd4Rv8mu31Ne3CAr1AM-81" value="proj&lt;sub&gt;q1&lt;/sub&gt;v&lt;sub&gt;2&lt;/sub&gt;" style="text;html=1;align=center;verticalAlign=middle;whiteSpace=wrap;rounded=0;fontStyle=1;fontColor=#FF3333;rotation=90;" vertex="1" parent="1">
          <mxGeometry x="60.00000000000006" y="820" width="80" height="40" as="geometry" />
        </mxCell>
        <mxCell id="Vmd4Rv8mu31Ne3CAr1AM-82" value="q&lt;sub&gt;2&lt;/sub&gt; = v&lt;sub&gt;2&lt;/sub&gt; - proj&lt;sub&gt;q1&lt;/sub&gt;v&lt;sub&gt;2&lt;/sub&gt;" style="text;html=1;align=center;verticalAlign=middle;whiteSpace=wrap;rounded=0;fontStyle=1;fontColor=#FF3333;rotation=0;" vertex="1" parent="1">
          <mxGeometry x="120.00000000000006" y="920.0000000000001" width="120" height="40" as="geometry" />
        </mxCell>
        <mxCell id="Vmd4Rv8mu31Ne3CAr1AM-83" value="" style="endArrow=none;html=1;rounded=0;" edge="1" parent="1">
          <mxGeometry width="50" height="50" relative="1" as="geometry">
            <mxPoint x="520" y="721.18" as="sourcePoint" />
            <mxPoint x="640" y="601.18" as="targetPoint" />
          </mxGeometry>
        </mxCell>
        <mxCell id="Vmd4Rv8mu31Ne3CAr1AM-84" value="" style="endArrow=none;html=1;rounded=0;" edge="1" parent="1">
          <mxGeometry width="50" height="50" relative="1" as="geometry">
            <mxPoint x="720" y="721.18" as="sourcePoint" />
            <mxPoint x="840" y="601.18" as="targetPoint" />
          </mxGeometry>
        </mxCell>
        <mxCell id="Vmd4Rv8mu31Ne3CAr1AM-85" value="" style="endArrow=classic;html=1;rounded=0;endFill=1;" edge="1" parent="1">
          <mxGeometry width="50" height="50" relative="1" as="geometry">
            <mxPoint x="520" y="721.18" as="sourcePoint" />
            <mxPoint x="720" y="721.18" as="targetPoint" />
          </mxGeometry>
        </mxCell>
        <mxCell id="Vmd4Rv8mu31Ne3CAr1AM-86" value="" style="endArrow=none;html=1;rounded=0;" edge="1" parent="1">
          <mxGeometry width="50" height="50" relative="1" as="geometry">
            <mxPoint x="640" y="601.18" as="sourcePoint" />
            <mxPoint x="840" y="601.18" as="targetPoint" />
          </mxGeometry>
        </mxCell>
        <mxCell id="Vmd4Rv8mu31Ne3CAr1AM-87" value="" style="endArrow=none;html=1;rounded=0;" edge="1" parent="1">
          <mxGeometry width="50" height="50" relative="1" as="geometry">
            <mxPoint x="840" y="601.18" as="sourcePoint" />
            <mxPoint x="840" y="841.18" as="targetPoint" />
          </mxGeometry>
        </mxCell>
        <mxCell id="Vmd4Rv8mu31Ne3CAr1AM-88" value="" style="endArrow=none;html=1;rounded=0;" edge="1" parent="1">
          <mxGeometry width="50" height="50" relative="1" as="geometry">
            <mxPoint x="720" y="721.18" as="sourcePoint" />
            <mxPoint x="720" y="961.18" as="targetPoint" />
          </mxGeometry>
        </mxCell>
        <mxCell id="Vmd4Rv8mu31Ne3CAr1AM-89" value="" style="endArrow=classic;html=1;rounded=0;endFill=1;strokeColor=#000000;fontColor=#000000;" edge="1" parent="1">
          <mxGeometry width="50" height="50" relative="1" as="geometry">
            <mxPoint x="520" y="721.18" as="sourcePoint" />
            <mxPoint x="520" y="961.18" as="targetPoint" />
          </mxGeometry>
        </mxCell>
        <mxCell id="Vmd4Rv8mu31Ne3CAr1AM-90" value="" style="endArrow=classic;html=1;rounded=0;endFill=1;strokeColor=#FF3333;" edge="1" parent="1">
          <mxGeometry width="50" height="50" relative="1" as="geometry">
            <mxPoint x="520" y="961.18" as="sourcePoint" />
            <mxPoint x="720" y="961.18" as="targetPoint" />
          </mxGeometry>
        </mxCell>
        <mxCell id="Vmd4Rv8mu31Ne3CAr1AM-91" value="" style="endArrow=none;html=1;rounded=0;" edge="1" parent="1">
          <mxGeometry width="50" height="50" relative="1" as="geometry">
            <mxPoint x="720" y="961.18" as="sourcePoint" />
            <mxPoint x="840" y="841.18" as="targetPoint" />
          </mxGeometry>
        </mxCell>
        <mxCell id="Vmd4Rv8mu31Ne3CAr1AM-92" value="" style="endArrow=none;html=1;rounded=0;dashed=1;" edge="1" parent="1">
          <mxGeometry width="50" height="50" relative="1" as="geometry">
            <mxPoint x="640" y="601.18" as="sourcePoint" />
            <mxPoint x="640" y="841.18" as="targetPoint" />
          </mxGeometry>
        </mxCell>
        <mxCell id="Vmd4Rv8mu31Ne3CAr1AM-93" value="" style="endArrow=none;html=1;rounded=0;dashed=1;" edge="1" parent="1">
          <mxGeometry width="50" height="50" relative="1" as="geometry">
            <mxPoint x="520" y="961.18" as="sourcePoint" />
            <mxPoint x="640" y="841.18" as="targetPoint" />
          </mxGeometry>
        </mxCell>
        <mxCell id="Vmd4Rv8mu31Ne3CAr1AM-94" value="" style="endArrow=none;html=1;rounded=0;dashed=1;" edge="1" parent="1">
          <mxGeometry width="50" height="50" relative="1" as="geometry">
            <mxPoint x="640" y="841.18" as="sourcePoint" />
            <mxPoint x="840" y="841.18" as="targetPoint" />
          </mxGeometry>
        </mxCell>
        <mxCell id="Vmd4Rv8mu31Ne3CAr1AM-95" value="a" style="text;html=1;align=center;verticalAlign=middle;whiteSpace=wrap;rounded=0;fontStyle=1" vertex="1" parent="1">
          <mxGeometry x="480" y="681.18" width="40" height="40" as="geometry" />
        </mxCell>
        <mxCell id="Vmd4Rv8mu31Ne3CAr1AM-96" value="b" style="text;html=1;align=center;verticalAlign=middle;whiteSpace=wrap;rounded=0;fontStyle=1" vertex="1" parent="1">
          <mxGeometry x="680" y="681.18" width="40" height="40" as="geometry" />
        </mxCell>
        <mxCell id="Vmd4Rv8mu31Ne3CAr1AM-97" value="c" style="text;html=1;align=center;verticalAlign=middle;whiteSpace=wrap;rounded=0;fontStyle=1" vertex="1" parent="1">
          <mxGeometry x="800" y="561.18" width="40" height="40" as="geometry" />
        </mxCell>
        <mxCell id="Vmd4Rv8mu31Ne3CAr1AM-98" value="d" style="text;html=1;align=center;verticalAlign=middle;whiteSpace=wrap;rounded=0;fontStyle=1" vertex="1" parent="1">
          <mxGeometry x="600" y="561.18" width="40" height="40" as="geometry" />
        </mxCell>
        <mxCell id="Vmd4Rv8mu31Ne3CAr1AM-99" value="e" style="text;html=1;align=center;verticalAlign=middle;whiteSpace=wrap;rounded=0;fontStyle=1" vertex="1" parent="1">
          <mxGeometry x="600" y="801.18" width="40" height="40" as="geometry" />
        </mxCell>
        <mxCell id="Vmd4Rv8mu31Ne3CAr1AM-100" value="f" style="text;html=1;align=center;verticalAlign=middle;whiteSpace=wrap;rounded=0;fontStyle=1" vertex="1" parent="1">
          <mxGeometry x="480" y="921.18" width="40" height="40" as="geometry" />
        </mxCell>
        <mxCell id="Vmd4Rv8mu31Ne3CAr1AM-101" value="g" style="text;html=1;align=center;verticalAlign=middle;whiteSpace=wrap;rounded=0;fontStyle=1" vertex="1" parent="1">
          <mxGeometry x="680" y="921.18" width="40" height="40" as="geometry" />
        </mxCell>
        <mxCell id="Vmd4Rv8mu31Ne3CAr1AM-102" value="h" style="text;html=1;align=center;verticalAlign=middle;whiteSpace=wrap;rounded=0;fontStyle=1" vertex="1" parent="1">
          <mxGeometry x="800" y="801.18" width="40" height="40" as="geometry" />
        </mxCell>
        <mxCell id="Vmd4Rv8mu31Ne3CAr1AM-103" value="" style="endArrow=classic;html=1;rounded=0;entryX=1;entryY=0;entryDx=0;entryDy=0;" edge="1" target="Vmd4Rv8mu31Ne3CAr1AM-101" parent="1">
          <mxGeometry width="50" height="50" relative="1" as="geometry">
            <mxPoint x="520" y="721.18" as="sourcePoint" />
            <mxPoint x="620" y="961.18" as="targetPoint" />
          </mxGeometry>
        </mxCell>
        <mxCell id="Vmd4Rv8mu31Ne3CAr1AM-104" value="i" style="text;html=1;align=center;verticalAlign=middle;whiteSpace=wrap;rounded=0;fontStyle=1" vertex="1" parent="1">
          <mxGeometry x="710" y="901.18" width="40" height="40" as="geometry" />
        </mxCell>
        <mxCell id="Vmd4Rv8mu31Ne3CAr1AM-105" value="" style="endArrow=classic;html=1;rounded=0;exitX=1;exitY=1;exitDx=0;exitDy=0;" edge="1" source="Vmd4Rv8mu31Ne3CAr1AM-95" parent="1">
          <mxGeometry width="50" height="50" relative="1" as="geometry">
            <mxPoint x="1000" y="781.18" as="sourcePoint" />
            <mxPoint x="780" y="901.18" as="targetPoint" />
          </mxGeometry>
        </mxCell>
        <mxCell id="Vmd4Rv8mu31Ne3CAr1AM-106" value="j" style="text;html=1;align=center;verticalAlign=middle;whiteSpace=wrap;rounded=0;fontStyle=1" vertex="1" parent="1">
          <mxGeometry x="720" y="871.18" width="40" height="40" as="geometry" />
        </mxCell>
        <mxCell id="Vmd4Rv8mu31Ne3CAr1AM-107" value="q&lt;sub&gt;2&lt;/sub&gt;" style="text;html=1;align=center;verticalAlign=middle;whiteSpace=wrap;rounded=0;fontStyle=1;fontColor=#000000;" vertex="1" parent="1">
          <mxGeometry x="620" y="681.18" width="40" height="40" as="geometry" />
        </mxCell>
        <mxCell id="Vmd4Rv8mu31Ne3CAr1AM-112" value="q&lt;sub&gt;1&lt;/sub&gt;" style="text;html=1;align=center;verticalAlign=middle;whiteSpace=wrap;rounded=0;fontStyle=1;fontColor=#000000;" vertex="1" parent="1">
          <mxGeometry x="480" y="821.18" width="40" height="40" as="geometry" />
        </mxCell>
        <mxCell id="Vmd4Rv8mu31Ne3CAr1AM-113" value="" style="endArrow=classic;html=1;rounded=0;exitX=1;exitY=1;exitDx=0;exitDy=0;strokeColor=#FF3333;" edge="1" parent="1" source="Vmd4Rv8mu31Ne3CAr1AM-100">
          <mxGeometry width="50" height="50" relative="1" as="geometry">
            <mxPoint x="830" y="721.18" as="sourcePoint" />
            <mxPoint x="780" y="901.18" as="targetPoint" />
          </mxGeometry>
        </mxCell>
        <mxCell id="Vmd4Rv8mu31Ne3CAr1AM-114" value="v&lt;sub&gt;3&lt;/sub&gt; - proj&lt;sub&gt;q1&lt;/sub&gt;v&lt;sub&gt;3&lt;/sub&gt;" style="text;html=1;align=center;verticalAlign=middle;whiteSpace=wrap;rounded=0;fontStyle=1;fontColor=#FF3333;rotation=0;" vertex="1" parent="1">
          <mxGeometry x="560" y="901.18" width="120" height="40" as="geometry" />
        </mxCell>
        <mxCell id="Vmd4Rv8mu31Ne3CAr1AM-115" value="proj&lt;sub&gt;q2&lt;/sub&gt;v&lt;sub&gt;3&lt;/sub&gt;" style="text;html=1;align=center;verticalAlign=middle;whiteSpace=wrap;rounded=0;fontStyle=1;fontColor=#FF3333;rotation=0;" vertex="1" parent="1">
          <mxGeometry x="560" y="961.18" width="120" height="40" as="geometry" />
        </mxCell>
        <mxCell id="Vmd4Rv8mu31Ne3CAr1AM-116" value="" style="endArrow=classic;html=1;rounded=0;endFill=1;strokeColor=#FF3333;exitX=1;exitY=1;exitDx=0;exitDy=0;" edge="1" parent="1" source="Vmd4Rv8mu31Ne3CAr1AM-101">
          <mxGeometry width="50" height="50" relative="1" as="geometry">
            <mxPoint x="820" y="1001.18" as="sourcePoint" />
            <mxPoint x="780" y="901.18" as="targetPoint" />
          </mxGeometry>
        </mxCell>
        <mxCell id="Vmd4Rv8mu31Ne3CAr1AM-117" value="q&lt;sub&gt;3&lt;/sub&gt; = v&lt;sub&gt;3&lt;/sub&gt; - proj&lt;sub&gt;q1&lt;/sub&gt;v&lt;sub&gt;3 -&amp;nbsp;&lt;/sub&gt;proj&lt;sub&gt;q2&lt;/sub&gt;v&lt;sub&gt;3&lt;/sub&gt;" style="text;html=1;align=center;verticalAlign=middle;whiteSpace=wrap;rounded=0;fontStyle=1;fontColor=#FF3333;rotation=0;" vertex="1" parent="1">
          <mxGeometry x="760" y="921.18" width="160" height="40" as="geometry" />
        </mxCell>
        <mxCell id="Vmd4Rv8mu31Ne3CAr1AM-118" value="(1)" style="text;html=1;align=center;verticalAlign=middle;whiteSpace=wrap;rounded=0;fontStyle=1" vertex="1" parent="1">
          <mxGeometry x="150" y="480" width="60" height="30" as="geometry" />
        </mxCell>
        <mxCell id="Vmd4Rv8mu31Ne3CAr1AM-119" value="(2)" style="text;html=1;align=center;verticalAlign=middle;whiteSpace=wrap;rounded=0;fontStyle=1" vertex="1" parent="1">
          <mxGeometry x="590" y="480" width="60" height="30" as="geometry" />
        </mxCell>
        <mxCell id="Vmd4Rv8mu31Ne3CAr1AM-120" value="(3)" style="text;html=1;align=center;verticalAlign=middle;whiteSpace=wrap;rounded=0;fontStyle=1" vertex="1" parent="1">
          <mxGeometry x="150" y="1001.18" width="60" height="30" as="geometry" />
        </mxCell>
        <mxCell id="Vmd4Rv8mu31Ne3CAr1AM-121" value="(4)" style="text;html=1;align=center;verticalAlign=middle;whiteSpace=wrap;rounded=0;fontStyle=1" vertex="1" parent="1">
          <mxGeometry x="590" y="1001.18" width="60" height="30" as="geometry" />
        </mxCell>
        <mxCell id="Vmd4Rv8mu31Ne3CAr1AM-156" value="" style="group" vertex="1" connectable="0" parent="1">
          <mxGeometry x="1000" y="80" width="360" height="360" as="geometry" />
        </mxCell>
        <mxCell id="Vmd4Rv8mu31Ne3CAr1AM-123" value="" style="endArrow=classic;html=1;rounded=0;endFill=1;strokeColor=#FF3333;" edge="1" parent="Vmd4Rv8mu31Ne3CAr1AM-156">
          <mxGeometry width="50" height="50" relative="1" as="geometry">
            <mxPoint x="40" y="120" as="sourcePoint" />
            <mxPoint x="160" as="targetPoint" />
          </mxGeometry>
        </mxCell>
        <mxCell id="Vmd4Rv8mu31Ne3CAr1AM-124" value="" style="endArrow=none;html=1;rounded=0;dashed=1;" edge="1" parent="Vmd4Rv8mu31Ne3CAr1AM-156">
          <mxGeometry width="50" height="50" relative="1" as="geometry">
            <mxPoint x="240" y="120" as="sourcePoint" />
            <mxPoint x="360" as="targetPoint" />
          </mxGeometry>
        </mxCell>
        <mxCell id="Vmd4Rv8mu31Ne3CAr1AM-125" value="" style="endArrow=classic;html=1;rounded=0;endFill=1;strokeColor=#FF3333;" edge="1" parent="Vmd4Rv8mu31Ne3CAr1AM-156">
          <mxGeometry width="50" height="50" relative="1" as="geometry">
            <mxPoint x="40" y="120" as="sourcePoint" />
            <mxPoint x="240" y="120" as="targetPoint" />
          </mxGeometry>
        </mxCell>
        <mxCell id="Vmd4Rv8mu31Ne3CAr1AM-126" value="" style="endArrow=none;html=1;rounded=0;dashed=1;" edge="1" parent="Vmd4Rv8mu31Ne3CAr1AM-156">
          <mxGeometry width="50" height="50" relative="1" as="geometry">
            <mxPoint x="160" as="sourcePoint" />
            <mxPoint x="360" as="targetPoint" />
          </mxGeometry>
        </mxCell>
        <mxCell id="Vmd4Rv8mu31Ne3CAr1AM-127" value="" style="endArrow=none;html=1;rounded=0;dashed=1;" edge="1" parent="Vmd4Rv8mu31Ne3CAr1AM-156">
          <mxGeometry width="50" height="50" relative="1" as="geometry">
            <mxPoint x="360" as="sourcePoint" />
            <mxPoint x="360" y="240" as="targetPoint" />
          </mxGeometry>
        </mxCell>
        <mxCell id="Vmd4Rv8mu31Ne3CAr1AM-128" value="" style="endArrow=none;html=1;rounded=0;dashed=1;" edge="1" parent="Vmd4Rv8mu31Ne3CAr1AM-156">
          <mxGeometry width="50" height="50" relative="1" as="geometry">
            <mxPoint x="240" y="120" as="sourcePoint" />
            <mxPoint x="240" y="360" as="targetPoint" />
          </mxGeometry>
        </mxCell>
        <mxCell id="Vmd4Rv8mu31Ne3CAr1AM-129" value="" style="endArrow=classic;html=1;rounded=0;endFill=1;strokeColor=#FF3333;" edge="1" parent="Vmd4Rv8mu31Ne3CAr1AM-156">
          <mxGeometry width="50" height="50" relative="1" as="geometry">
            <mxPoint x="40" y="120" as="sourcePoint" />
            <mxPoint x="40" y="360" as="targetPoint" />
          </mxGeometry>
        </mxCell>
        <mxCell id="Vmd4Rv8mu31Ne3CAr1AM-130" value="" style="endArrow=none;html=1;rounded=0;dashed=1;" edge="1" parent="Vmd4Rv8mu31Ne3CAr1AM-156">
          <mxGeometry width="50" height="50" relative="1" as="geometry">
            <mxPoint x="40" y="360" as="sourcePoint" />
            <mxPoint x="240" y="360" as="targetPoint" />
          </mxGeometry>
        </mxCell>
        <mxCell id="Vmd4Rv8mu31Ne3CAr1AM-131" value="" style="endArrow=none;html=1;rounded=0;dashed=1;" edge="1" parent="Vmd4Rv8mu31Ne3CAr1AM-156">
          <mxGeometry width="50" height="50" relative="1" as="geometry">
            <mxPoint x="240" y="360" as="sourcePoint" />
            <mxPoint x="360" y="240" as="targetPoint" />
          </mxGeometry>
        </mxCell>
        <mxCell id="Vmd4Rv8mu31Ne3CAr1AM-132" value="" style="endArrow=none;html=1;rounded=0;dashed=1;" edge="1" parent="Vmd4Rv8mu31Ne3CAr1AM-156">
          <mxGeometry width="50" height="50" relative="1" as="geometry">
            <mxPoint x="160" as="sourcePoint" />
            <mxPoint x="160" y="240" as="targetPoint" />
          </mxGeometry>
        </mxCell>
        <mxCell id="Vmd4Rv8mu31Ne3CAr1AM-133" value="" style="endArrow=none;html=1;rounded=0;dashed=1;" edge="1" parent="Vmd4Rv8mu31Ne3CAr1AM-156">
          <mxGeometry width="50" height="50" relative="1" as="geometry">
            <mxPoint x="40" y="360" as="sourcePoint" />
            <mxPoint x="160" y="240" as="targetPoint" />
          </mxGeometry>
        </mxCell>
        <mxCell id="Vmd4Rv8mu31Ne3CAr1AM-134" value="" style="endArrow=none;html=1;rounded=0;dashed=1;" edge="1" parent="Vmd4Rv8mu31Ne3CAr1AM-156">
          <mxGeometry width="50" height="50" relative="1" as="geometry">
            <mxPoint x="160" y="240" as="sourcePoint" />
            <mxPoint x="360" y="240" as="targetPoint" />
          </mxGeometry>
        </mxCell>
        <mxCell id="Vmd4Rv8mu31Ne3CAr1AM-143" value="" style="endArrow=classic;html=1;rounded=0;entryX=1;entryY=0;entryDx=0;entryDy=0;" edge="1" parent="Vmd4Rv8mu31Ne3CAr1AM-156">
          <mxGeometry width="50" height="50" relative="1" as="geometry">
            <mxPoint x="40" y="120" as="sourcePoint" />
            <mxPoint x="240" y="320" as="targetPoint" />
          </mxGeometry>
        </mxCell>
        <mxCell id="Vmd4Rv8mu31Ne3CAr1AM-145" value="" style="endArrow=classic;html=1;rounded=0;exitX=1;exitY=1;exitDx=0;exitDy=0;" edge="1" parent="Vmd4Rv8mu31Ne3CAr1AM-156">
          <mxGeometry width="50" height="50" relative="1" as="geometry">
            <mxPoint x="40" y="120" as="sourcePoint" />
            <mxPoint x="300" y="300" as="targetPoint" />
          </mxGeometry>
        </mxCell>
        <mxCell id="Vmd4Rv8mu31Ne3CAr1AM-148" value="" style="endArrow=classic;html=1;rounded=0;" edge="1" parent="Vmd4Rv8mu31Ne3CAr1AM-156">
          <mxGeometry width="50" height="50" relative="1" as="geometry">
            <mxPoint x="41" y="120" as="sourcePoint" />
            <mxPoint x="160" y="280" as="targetPoint" />
          </mxGeometry>
        </mxCell>
        <mxCell id="Vmd4Rv8mu31Ne3CAr1AM-149" value="v&lt;sub&gt;1&lt;/sub&gt;" style="text;html=1;align=center;verticalAlign=middle;whiteSpace=wrap;rounded=0;fontStyle=1" vertex="1" parent="Vmd4Rv8mu31Ne3CAr1AM-156">
          <mxGeometry x="140" y="280" width="40" height="40" as="geometry" />
        </mxCell>
        <mxCell id="Vmd4Rv8mu31Ne3CAr1AM-150" value="v&lt;sub&gt;2&lt;/sub&gt;" style="text;html=1;align=center;verticalAlign=middle;whiteSpace=wrap;rounded=0;fontStyle=1" vertex="1" parent="Vmd4Rv8mu31Ne3CAr1AM-156">
          <mxGeometry x="201" y="310" width="40" height="40" as="geometry" />
        </mxCell>
        <mxCell id="Vmd4Rv8mu31Ne3CAr1AM-151" value="v&lt;sub&gt;3&lt;/sub&gt;" style="text;html=1;align=center;verticalAlign=middle;whiteSpace=wrap;rounded=0;fontStyle=1" vertex="1" parent="Vmd4Rv8mu31Ne3CAr1AM-156">
          <mxGeometry x="280" y="260" width="40" height="40" as="geometry" />
        </mxCell>
        <mxCell id="Vmd4Rv8mu31Ne3CAr1AM-152" value="u&lt;sub&gt;1&lt;/sub&gt;" style="text;html=1;align=center;verticalAlign=middle;whiteSpace=wrap;rounded=0;fontStyle=1;fontColor=#FF3333;" vertex="1" parent="Vmd4Rv8mu31Ne3CAr1AM-156">
          <mxGeometry y="220" width="40" height="40" as="geometry" />
        </mxCell>
        <mxCell id="Vmd4Rv8mu31Ne3CAr1AM-153" value="u&lt;sub&gt;2&lt;/sub&gt;" style="text;html=1;align=center;verticalAlign=middle;whiteSpace=wrap;rounded=0;fontStyle=1;fontColor=#FF3333;" vertex="1" parent="Vmd4Rv8mu31Ne3CAr1AM-156">
          <mxGeometry x="161" y="80" width="40" height="40" as="geometry" />
        </mxCell>
        <mxCell id="Vmd4Rv8mu31Ne3CAr1AM-154" value="u&lt;sub&gt;3&lt;/sub&gt;" style="text;html=1;align=center;verticalAlign=middle;whiteSpace=wrap;rounded=0;fontStyle=1;fontColor=#FF3333;" vertex="1" parent="Vmd4Rv8mu31Ne3CAr1AM-156">
          <mxGeometry x="40" y="40" width="40" height="40" as="geometry" />
        </mxCell>
      </root>
    </mxGraphModel>
  </diagram>
</mxfile>
